<?xml version="1.0" standalone="no"?>
<!-- Generator: Gravit.io -->
<svg xmlns="http://www.w3.org/2000/svg" xmlns:xlink="http://www.w3.org/1999/xlink" style="isolation:isolate" viewBox="0 0 277 90" width="277" height="90">
	<defs><clipPath id="_clipPath_UDCtfFDBAEntcGSEyUnGpld3bfimKmhb"><rect width="277" height="90"/></clipPath></defs>
	<g clip-path="url(#_clipPath_UDCtfFDBAEntcGSEyUnGpld3bfimKmhb)">
		<g id="Group"><rect x="18.958" y="24.985" width="74.907" height="4.226" transform="matrix(1,0,0,1,0,0)" fill="rgb(79,79,79)"/>
			<rect x="56.411" y="34.436" width="37.454" height="4.226" transform="matrix(1,0,0,1,0,0)" fill="rgb(79,79,79)"/>
			<rect x="75.138" y="42.887" width="18.727" height="4.226" transform="matrix(1,0,0,1,0,0)" fill="rgb(79,79,79)"/>
			<rect x="84.501" y="51.338" width="9.363" height="4.226" transform="matrix(1,0,0,1,0,0)" fill="rgb(79,79,79)"/>
			<rect x="89.183" y="59.789" width="4.682" height="4.226" transform="matrix(1,0,0,1,0,0)" fill="rgb(79,79,79)"/>
			<rect x="183.135" y="25.985" width="74.907" height="4.226" transform="matrix(1,0,0,1,0,0)" fill="rgb(79,79,79)"/>
			<rect x="183.135" y="34.436" width="37.454" height="4.226" transform="matrix(1,0,0,1,0,0)" fill="rgb(79,79,79)"/>
			<rect x="183.135" y="42.887" width="18.727" height="4.226" transform="matrix(1,0,0,1,0,0)" fill="rgb(79,79,79)"/>
			<rect x="183.135" y="51.338" width="9.363" height="4.226" transform="matrix(1,0,0,1,0,0)" fill="rgb(79,79,79)"/>
			<rect x="182.948" y="59.789" width="4.682" height="4.226" transform="matrix(1,0,0,1,0,0)" fill="rgb(79,79,79)"/>
			<path d=" M 109.444 50.821 C 107.008 49.51 105.038 47.476 103.805 44.999 C 100.757 37.44 113.864 31.344 133.006 31.344 C 152.148 31.344 170.07 37.44 173.058 44.999 C 174.49 48.596 172.265 51.857 167.51 54.296" fill="none" vector-effect="none" stroke-width="3" stroke="rgb(48,60,66)" stroke-linejoin="round" stroke-linecap="round" stroke-miterlimit="4"/>
			<path d=" M 130.872 71.853 C 128.059 73.941 124.621 75.015 121.119 74.901 C 113.041 73.712 114.26 59.386 123.831 42.896 C 133.402 26.406 147.576 13.97 155.745 15.159 C 160.103 15.799 161.841 20.249 160.865 26.772" fill="none" vector-effect="none" stroke-width="3" stroke="rgb(48,60,66)" stroke-linejoin="round" stroke-linecap="round" stroke-miterlimit="4"/>
			<path d=" M 151.264 40.458 C 158.031 54.905 160.103 69.353 155.745 74.84 C 150.685 81.21 138.828 73.011 129.257 56.551 C 119.686 40.092 116.059 21.499 121.119 15.159 C 123.862 11.714 128.556 12.537 133.798 16.591" fill="none" vector-effect="none" stroke-width="3" stroke="rgb(48,60,66)" stroke-linejoin="round" stroke-linecap="round" stroke-miterlimit="4"/>
			<!-- <path d=" M 133.859 44.999 C 133.859 42.476 135.908 40.427 138.432 40.427 C 140.955 40.427 143.004 42.476 143.004 44.999 C 143.004 47.523 140.955 49.571 138.432 49.571 C 135.908 49.571 133.859 47.523 133.859 44.999 Z " fill="none" vector-effect="none" stroke-width="3" stroke="rgb(48,60,66)" stroke-linejoin="round" stroke-linecap="round" stroke-miterlimit="4"/> -->
		</g>
	</g>
</svg>